# xmcd
#
# Track frame offsets:
#	150
#	15295
#	37706
#	51862
#	73269
#	92815
#	117387
#	192948
#
# Disc length: 4440 seconds
#
# Revision: 2
# Processed by: cddbd v1.5.2PL0 Copyright (c) Steve Scherf et al.
# Submitted via: EasyCDDAExtractor 2010.6.0.0
#
DISCID=62115608
DTITLE=Dzem - Absolutley Live 1986
DYEAR=1985
DGENRE=Blues
TTITLE0=Norweska impreza bluesowa
TTITLE1=Wiem na pewno wiem - nie nie kocham Cie
TTITLE2=Poznalem go po czarnym kapeluszu
TTITLE3=Kiepska gra
TTITLE4=Blues Alabama
TTITLE5=Abym mogl przed siebie isc
TTITLE6=Niewinni i Ja - cz. I i II
TTITLE7=Data Track
EXTD=
EXTT0=
EXTT1=
EXTT2=
EXTT3=
EXTT4=
EXTT5=
EXTT6=
EXTT7=
PLAYORDER=
